<?xml version="1.0" encoding="UTF-8" standalone="no"?>
<svg
   xmlns:dc="http://purl.org/dc/elements/1.1/"
   xmlns:cc="http://creativecommons.org/ns#"
   xmlns:rdf="http://www.w3.org/1999/02/22-rdf-syntax-ns#"
   xmlns:svg="http://www.w3.org/2000/svg"
   xmlns="http://www.w3.org/2000/svg"
   xmlns:sodipodi="http://sodipodi.sourceforge.net/DTD/sodipodi-0.dtd"
   xmlns:inkscape="http://www.inkscape.org/namespaces/inkscape"
   width="1440"
   height="900"
   viewBox="0 0 1440 900"
   fill="none"
   version="1.1"
   id="svg34"
   sodipodi:docname="wavy-purple-by-nouridio.svg"
   inkscape:export-filename="C:\Users\Jameed\Desktop\assets\wavy-purple-by-nouridio.png"
   inkscape:export-xdpi="96"
   inkscape:export-ydpi="96"
   inkscape:version="1.0 (4035a4fb49, 2020-05-01)">
  <metadata
     id="metadata38">
    <rdf:RDF>
      <cc:Work
         rdf:about="">
        <dc:format>image/svg+xml</dc:format>
        <dc:type
           rdf:resource="http://purl.org/dc/dcmitype/StillImage" />
      </cc:Work>
    </rdf:RDF>
  </metadata>
  <sodipodi:namedview
     inkscape:document-rotation="0"
     pagecolor="#ffffff"
     bordercolor="#666666"
     borderopacity="1"
     objecttolerance="10"
     gridtolerance="10"
     guidetolerance="10"
     inkscape:pageopacity="0"
     inkscape:pageshadow="2"
     inkscape:window-width="1680"
     inkscape:window-height="987"
     id="namedview36"
     showgrid="false"
     inkscape:zoom="1.0590278"
     inkscape:cx="623.77397"
     inkscape:cy="745.94758"
     inkscape:window-x="-8"
     inkscape:window-y="-8"
     inkscape:window-maximized="1"
     inkscape:current-layer="svg34" />
  <g
     clip-path="url(#clip0)"
     id="g27">
    <path
       d="M1398.95 869.86C1385.33 846.02 1350.51 847.41 1338.82 872.25C1334.37 881.69 1344.37 860.44 1338.82 872.25C1327.41 896.49 1296.48 903.95 1275.28 887.56C1256.04 872.7 1250.53 868.44 1234.02 855.68C1207.13 834.9 1167.77 846.81 1156.92 879.01C1153.17 890.14 1161.35 865.86 1156.92 879.01C1149 902.51 1117.94 907.44 1103.14 887.55C1092.08 872.68 1093.8 875 1082.71 860.09C1066.16 837.85 1032.28 839.68 1018.22 863.58C1011.64 874.76 1011.7 874.66 1002.67 890.02C995.55 902.12 977.67 900.85 972.32 887.87C966.18 872.95 968.26 878 963.99 867.63C953.74 842.74 920.82 837.46 903.3 857.9C895.96 866.47 910.96 848.97 903.3 857.9C884.16 880.23 849.49 879.84 830.86 857.08C819.22 842.85 830.181 856.25 821.081 845.13C797.871 816.77 753.37 820.8 735.62 852.86C730.32 862.44 732.76 858.03 722.79 876.05C716.68 887.09 700.94 887.47 694.3 876.73C686.44 864.03 686.67 864.4 681.05 855.31C668.68 835.31 639.941 834.35 626.271 853.48C616.831 866.68 613.56 871.26 603.19 885.76C593.8 898.9 573.291 894.86 569.591 879.13C566.491 865.95 569.241 877.62 566.781 867.15C562.191 847.65 536.16 843.71 526 860.98C519.12 872.68 522.89 866.26 515.1 879.52C504.55 897.45 478.63 897.45 468.08 879.52C460.28 866.26 467.69 878.86 461.72 868.7C447.46 844.46 412.14 845.25 398.98 870.11C393.75 879.98 405 858.73 398.98 870.11C388.62 889.67 360.14 888.23 351.8 867.73C347.37 856.83 354.12 873.41 349.43 861.9C343.25 846.69 321.21 848.35 317.37 864.31C314.71 875.34 317.84 862.32 314.89 874.59C311.3 889.49 290.95 891.57 284.43 877.7C278.36 864.81 284.06 876.91 279.05 866.27C269.48 845.94 240.32 846.66 231.77 867.44C227.48 877.84 233.24 863.86 228.03 876.51C221 893.6 197.24 894.74 188.6 878.41C181.69 865.38 182.74 867.35 175.84 854.32C167.8 839.14 145.44 841.24 140.37 857.65C135.61 873.05 136.3 870.81 131.85 885.21C126.27 903.28 101.57 905.46 92.9105 888.64C85.1505 873.56 89.2405 881.51 82.4005 868.23C71.7405 847.51 41.4405 849.65 33.7905 871.67C25.4105 895.8 -92.4995 922.78 -126.02 1019.28C-26.1495 1019.28 574.23 1022.31 1675.11 1028.37C1492.57 925.44 1400.52 872.61 1398.95 869.86Z"
       fill="#AD91FF"
       id="path25" />
  </g>
  <defs
     id="defs32">
    <clipPath
       id="clip0">
      <rect
         width="1440"
         height="900"
         fill="white"
         id="rect29" />
    </clipPath>
  </defs>
  <g
     style="fill:#ff0000;fill-opacity:1"
     id="g702"
     clip-path="url(#clip0)">
    <path
       style="fill:#ff0000;fill-opacity:1"
       id="path700"
       fill="#AD91FF"
       d="M1398.95 869.86C1385.33 846.02 1350.51 847.41 1338.82 872.25C1334.37 881.69 1344.37 860.44 1338.82 872.25C1327.41 896.49 1296.48 903.95 1275.28 887.56C1256.04 872.7 1250.53 868.44 1234.02 855.68C1207.13 834.9 1167.77 846.81 1156.92 879.01C1153.17 890.14 1161.35 865.86 1156.92 879.01C1149 902.51 1117.94 907.44 1103.14 887.55C1092.08 872.68 1093.8 875 1082.71 860.09C1066.16 837.85 1032.28 839.68 1018.22 863.58C1011.64 874.76 1011.7 874.66 1002.67 890.02C995.55 902.12 977.67 900.85 972.32 887.87C966.18 872.95 968.26 878 963.99 867.63C953.74 842.74 920.82 837.46 903.3 857.9C895.96 866.47 910.96 848.97 903.3 857.9C884.16 880.23 849.49 879.84 830.86 857.08C819.22 842.85 830.181 856.25 821.081 845.13C797.871 816.77 753.37 820.8 735.62 852.86C730.32 862.44 732.76 858.03 722.79 876.05C716.68 887.09 700.94 887.47 694.3 876.73C686.44 864.03 686.67 864.4 681.05 855.31C668.68 835.31 639.941 834.35 626.271 853.48C616.831 866.68 613.56 871.26 603.19 885.76C593.8 898.9 573.291 894.86 569.591 879.13C566.491 865.95 569.241 877.62 566.781 867.15C562.191 847.65 536.16 843.71 526 860.98C519.12 872.68 522.89 866.26 515.1 879.52C504.55 897.45 478.63 897.45 468.08 879.52C460.28 866.26 467.69 878.86 461.72 868.7C447.46 844.46 412.14 845.25 398.98 870.11C393.75 879.98 405 858.73 398.98 870.11C388.62 889.67 360.14 888.23 351.8 867.73C347.37 856.83 354.12 873.41 349.43 861.9C343.25 846.69 321.21 848.35 317.37 864.31C314.71 875.34 317.84 862.32 314.89 874.59C311.3 889.49 290.95 891.57 284.43 877.7C278.36 864.81 284.06 876.91 279.05 866.27C269.48 845.94 240.32 846.66 231.77 867.44C227.48 877.84 233.24 863.86 228.03 876.51C221 893.6 197.24 894.74 188.6 878.41C181.69 865.38 182.74 867.35 175.84 854.32C167.8 839.14 145.44 841.24 140.37 857.65C135.61 873.05 136.3 870.81 131.85 885.21C126.27 903.28 101.57 905.46 92.9105 888.64C85.1505 873.56 89.2405 881.51 82.4005 868.23C71.7405 847.51 41.4405 849.65 33.7905 871.67C25.4105 895.8 -92.4995 922.78 -126.02 1019.28C-26.1495 1019.28 574.23 1022.31 1675.11 1028.37C1492.57 925.44 1400.52 872.61 1398.95 869.86Z" />
  </g>
</svg>
